# xmcd CD database file
#
# Track frame offsets:
#	150
#	22050
#	44267
#	66220
#
# Disc length: 1176 seconds
#
# Revision: 0
# Processed by: cddbd v1.5PL3 Copyright (c) Steve Scherf et al.
# Submitted via: CDex 1.51
#
DISCID=31049604
DTITLE=未来-MIKU- - 穏やかな風
DYEAR=2003
DGENRE=J ポップ
TTITLE0=穏やかな風
TTITLE1=さようなら愛しき日々よ
TTITLE2=穏やかな風(Ins)
TTITLE3=さようなら愛しき日々よ(Ins)
EXTD=YEAR: 2003
EXTT0=
EXTT1=
EXTT2=
EXTT3=
PLAYORDER=
